<?xml version="1.0" encoding="utf-8"?>
<!-- Generator: Adobe Illustrator 26.0.0, SVG Export Plug-In . SVG Version: 6.00 Build 0)  -->
<svg version="1.1" id="Camada_1" xmlns="http://www.w3.org/2000/svg" xmlns:xlink="http://www.w3.org/1999/xlink" x="0px" y="0px"
	 viewBox="0 0 525 194" style="enable-background:new 0 0 525 194;" xml:space="preserve">
<style type="text/css">
	.st0{fill:url(#SVGID_1_);}
	.st1{fill:url(#SVGID_00000181807320471792576070000013255157012569085072_);}
	.st2{fill:url(#SVGID_00000134929645663294833530000003523938637610906010_);}
	.st3{fill:url(#SVGID_00000170989733527902051920000012433830052259924870_);}
	.st4{fill:url(#SVGID_00000102525905716816713000000006540405839869730211_);}
	.st5{fill:url(#SVGID_00000074403971947809571880000016042325768070288527_);}
	.st6{fill:url(#SVGID_00000168822831952034256580000011842606871599286463_);}
	.st7{fill:url(#SVGID_00000098937822220918540080000017045709391536218523_);}
	.st8{fill:url(#SVGID_00000025412728354254709010000000694433913450716301_);}
</style>
<g>
	<g>
		<linearGradient id="SVGID_1_" gradientUnits="userSpaceOnUse" x1="28.3097" y1="73.5203" x2="350.852" y2="73.5203">
			<stop  offset="0" style="stop-color:#716B6F"/>
			<stop  offset="0.2654" style="stop-color:#E6E6E6"/>
			<stop  offset="0.6453" style="stop-color:#F2F2F2"/>
			<stop  offset="0.9637" style="stop-color:#565457"/>
			<stop  offset="1" style="stop-color:#5A1317"/>
		</linearGradient>
		<path class="st0" d="M40.39,119.24c0.52-0.4-2.08-3.94-3.91-7.83c-4.03-8.55-3.33-16.59-2.61-24.78
			c1.01-11.52,4.56-20.86,7.83-27.39c2.91,1.43,7.38,3.44,13.04,5.22c10.29,3.23,28.41,6.89,65.22-1.3
			c26.44-5.88,25.09-9.55,57.4-16.96c10.37-2.38,22.12-5.03,37.83-6.52c6.74-0.64,22.62-1.87,46.96,0
			c19.89,1.53,50.52,5.52,88.7,16.96c-4.59-2.45-11.27-5.79-19.57-9.13c-5.31-2.14-18.98-7.38-48.26-13.04
			c-20.57-3.98-30.85-5.97-44.35-6.52c-9.07-0.37-27.32-0.51-49.57,3.91c-16.82,3.35-34.03,8.93-54.79,15.65
			c-5.36,1.74-12.86,4.23-23.48,6.52c-10.99,2.37-20.23,3.42-27.39,3.91c-9.2,0.64-14.71,1.02-22.18,0
			c-9.58-1.3-17.16-4.19-22.18-6.52c-1.84,4.07-4.24,9.84-6.52,16.96c-2.01,6.27-3.3,10.28-3.91,15.65
			c-0.5,4.42-0.71,11.2,1.3,19.57c0.54,2.34,1.62,5.69,3.91,9.13C36.37,116.47,39.86,119.65,40.39,119.24z"/>
		<path d="M40.39,119.24c0.12-0.13,0.05-0.32,0.01-0.47c-0.15-0.47-0.4-0.9-0.63-1.33c-0.88-1.69-2.05-3.42-2.87-5.14
			c-3.71-7.04-4.04-15.2-3.31-22.97c0.36-5.22,1.1-10.42,2.47-15.48c1.39-5,3.19-10.29,5.66-14.7c11.79,5.87,24.89,8.92,38.07,8.81
			c19.7-0.15,39.35-4.01,58.11-9.91c6.23-2.09,12.32-4.61,18.62-6.56c25.2-7.54,51.29-12.93,77.68-13.15
			c39.56-0.33,78.93,6.6,116.79,17.8c0,0-0.37,0.9-0.37,0.9c-5.89-3.13-11.93-5.98-18.09-8.53c-24.83-9.88-51.49-14.26-77.73-18.74
			c-33.21-4.75-66.96,0.79-98.67,11c-12.81,3.83-25.37,8.48-38.34,11.8c-12.98,3.3-26.29,5.17-39.65,5.84
			c-13.36,1.15-26.96-1.2-39.1-6.93c-1.99,5.13-4.78,11.36-6.47,17.07c-1.91,5.8-3.75,11.69-4.09,17.83
			c-0.43,6.1,0.23,12.26,1.74,18.19c1.36,5.18,4.3,9.91,8.25,13.53C38.98,118.49,39.72,119.33,40.39,119.24L40.39,119.24z
			 M40.39,119.24c-0.18,0.09-0.38-0.03-0.54-0.1c-1.15-0.68-2.09-1.68-3.01-2.64c-3.14-3.36-5.48-7.46-6.66-11.9
			c-2.32-8.88-2.63-18.35-0.37-27.27c2.39-8.87,5.42-17.57,9.18-25.95c0,0,0.04-0.09,0.04-0.09l0.09,0.04
			c12.13,5.69,25.68,7.99,39,6.81c13.35-0.7,26.62-2.6,39.57-5.93c25.77-7.05,50.7-17.35,77.19-21.73
			c19.78-3.33,40.11-4.19,60.03-1.44c6.63,0.93,13.21,2.16,19.78,3.4c26.26,4.81,52.84,10.67,76.39,23.76c0,0,4.28,2.29,4.28,2.29
			c-26.67-8.21-54.03-14.35-81.79-17.37c-26.11-2.86-52.67-3.22-78.57,1.64c-6.47,1.17-12.89,2.6-19.3,4.09
			c-12.91,2.76-25.29,7.13-37.68,11.62c-18.82,5.86-38.49,9.67-58.24,9.77c-13.2,0.08-26.34-3.02-38.13-8.93
			c-1.88,4.31-4.27,9.63-5.47,14.58c-1.38,5.04-2.14,10.24-2.51,15.45c-1,9.29-0.03,18.39,5.13,26.4c0,0,0.97,1.71,0.97,1.71
			C39.97,117.96,40.63,118.73,40.39,119.24L40.39,119.24z"/>
	</g>
	<g>
		
			<linearGradient id="SVGID_00000181057591185899990790000001505556825002941604_" gradientUnits="userSpaceOnUse" x1="167.5699" y1="86.9892" x2="493.6903" y2="86.9892">
			<stop  offset="0" style="stop-color:#401C1B"/>
			<stop  offset="0.2654" style="stop-color:#AA2506"/>
			<stop  offset="0.6453" style="stop-color:#FF0000"/>
			<stop  offset="1" style="stop-color:#5A1317"/>
		</linearGradient>
		<path style="fill:url(#SVGID_00000181057591185899990790000001505556825002941604_);" d="M167.58,58.59
			c0.17-0.31,4.34,1.9,9.13,3.91c4.57,1.92,14.12,5.53,32.61,7.83c28.29,3.52,57.44,1.49,60.01,1.3c8.22-0.6,7.62-0.82,58.7-7.83
			c31.06-4.26,36.09-4.84,44.35-5.22c17.16-0.79,31.42-1.44,49.57,2.61c15.02,3.35,26.1,8.45,41.74,15.65
			c12.62,5.81,22.8,11.43,30,15.65c-0.87,7.83-1.74,15.65-2.61,23.48c-0.43-6.96-0.87-13.91-1.3-20.87
			c-5.84-3.73-14.21-8.57-24.78-13.04c-8.07-3.41-27.18-10.74-56.09-13.04c-17.31-1.38-35.69,0.8-71.75,5.22
			c-30.23,3.7-37.71,5.54-63.92,7.83c-20.31,1.77-36.1,2.44-54.79-1.3c-14.07-2.82-23.94-6.96-28.7-9.13
			C177.85,66.2,167.29,59.1,167.58,58.59z"/>
		<path d="M167.58,58.59c0.2-0.07,0.42,0.06,0.63,0.12l0.61,0.25c2.79,1.21,5.59,2.61,8.39,3.74c9.73,3.98,20.14,5.98,30.52,7.37
			c20.83,2.59,41.94,2.77,62.86,1.33c13.87-1.38,48.11-6.64,62.4-8.5c10.41-1.4,20.8-2.95,31.25-4.02
			c10.48-0.85,20.98-1.28,31.5-1.14c14.03,0.26,28.02,2.74,41.27,7.37c13.2,4.75,25.87,10.78,38.46,16.95
			c6.35,3.2,12.59,6.6,18.73,10.2l-0.03,0.3l-2.58,23.48l-0.99-0.02l-1.28-20.87l0.22,0.37C466.22,80.33,439,72.02,411.39,69.6
			c-13.81-1.41-27.72-0.28-41.52,1.11c-27.65,2.77-55.12,6.93-82.71,10.18c-27.5,2.98-55.93,5.2-82.64-3.6
			c-9.97-3.06-19.48-7.48-28.43-12.81c-2.6-1.56-5.2-3.15-7.62-4.99C168.16,59.22,167.74,58.98,167.58,58.59L167.58,58.59z
			 M167.58,58.59c0.17,0.39,0.58,0.63,0.9,0.91c2.42,1.83,5.03,3.41,7.64,4.97c8.96,5.3,18.48,9.7,28.45,12.72
			c26.72,8.71,55.1,6.41,82.57,3.36c27.57-3.33,55.04-7.57,82.68-10.41c13.8-1.43,27.75-2.6,41.64-1.22
			c27.73,2.35,55.12,10.63,78.57,25.81c0,0,0.2,0.13,0.2,0.13l0.02,0.24l1.33,20.87l-0.99-0.02l2.64-23.48l0.23,0.46
			c-6.02-3.55-12.16-6.9-18.39-10.07c-12.51-6.18-25.19-12.25-38.31-17.01c-13.17-4.64-27.07-7.15-41.04-7.45
			c-10.47-0.17-20.99,0.23-31.43,1.05c-10.44,1.04-20.83,2.55-31.24,3.93c-14.49,1.84-48.35,6.96-62.44,8.33
			c-20.95,1.38-42.06,1.14-62.9-1.51c-10.38-1.41-20.79-3.45-30.52-7.46c-2.8-1.14-5.62-2.54-8.38-3.76c0,0-0.61-0.25-0.61-0.25
			C168,58.65,167.78,58.51,167.58,58.59L167.58,58.59z"/>
	</g>
</g>
<g>
	<g>
		
			<linearGradient id="SVGID_00000046330851757755339390000000361232990838170755_" gradientUnits="userSpaceOnUse" x1="122.8781" y1="108.23" x2="127.2413" y2="158.1025" gradientTransform="matrix(1 0 -0.0875 1 -0.474 0)">
			<stop  offset="0" style="stop-color:#CCCCCC"/>
			<stop  offset="1" style="stop-color:#F2F2F2"/>
		</linearGradient>
		<path style="fill:url(#SVGID_00000046330851757755339390000000361232990838170755_);" d="M134.13,142.75
			c-0.25,2.84-1.12,5.23-2.62,7.19c-1.5,1.95-3.32,3.54-5.47,4.74c-2.15,1.21-4.51,2.08-7.07,2.62c-2.56,0.53-5.02,0.8-7.4,0.8
			c-2.28,0-4.62-0.23-7.02-0.7c-2.4-0.46-4.58-1.24-6.53-2.34c-1.95-1.09-3.53-2.53-4.75-4.33c-1.22-1.79-1.78-4.01-1.68-6.66
			c0.04-0.42,0.22-0.77,0.55-1.05c0.33-0.28,0.7-0.42,1.12-0.42h9.28c0.28,0,0.52,0.02,0.73,0.07c0.21,0.05,0.4,0.12,0.57,0.21
			c0.31,0.19,0.68,0.51,1.1,0.98c0.61,1.49,1.63,2.5,3.05,3.04c1.42,0.54,2.92,0.8,4.5,0.8c0.7,0,1.5-0.05,2.42-0.14
			c0.91-0.09,1.77-0.29,2.56-0.59c0.79-0.3,1.5-0.74,2.1-1.33c0.61-0.58,0.95-1.34,1.04-2.27c0.11-1.26-0.28-2.16-1.16-2.72
			c-0.88-0.56-1.82-1-2.82-1.33c-0.77-0.28-1.69-0.55-2.76-0.8c-1.07-0.26-2.32-0.52-3.73-0.8c-2.1-0.42-4.13-0.96-6.07-1.64
			c-1.94-0.67-3.64-1.57-5.1-2.69c-1.46-1.12-2.59-2.52-3.4-4.22c-0.81-1.7-1.1-3.78-0.88-6.24c0.27-3.07,1.35-5.71,3.24-7.92
			c1.89-2.21,4.26-3.9,7.11-5.06c3.08-1.21,6.55-1.81,10.41-1.81c1.54,0,3.12,0.13,4.75,0.38c1.63,0.26,3.2,0.67,4.7,1.26
			c1.51,0.58,2.89,1.35,4.16,2.3c1.26,0.95,2.33,2.11,3.19,3.45c1.4,2.05,2.08,4.12,2.04,6.21c-0.03,0.37-0.21,0.72-0.55,1.05
			c-0.33,0.33-0.68,0.49-1.05,0.49h-9.77c-0.98,0-1.71-0.42-2.19-1.26c-0.19-0.98-0.84-1.81-1.94-2.51
			c-1.2-0.65-2.61-0.98-4.24-0.98c-0.7,0-1.41,0.05-2.14,0.14c-0.73,0.09-1.41,0.3-2.04,0.63c-0.63,0.33-1.16,0.76-1.58,1.29
			c-0.42,0.54-0.67,1.22-0.74,2.06c-0.11,1.3,0.49,2.35,1.82,3.14c1.33,0.74,3.87,1.51,7.61,2.3c2.15,0.42,4.28,0.92,6.39,1.5
			c2.11,0.58,3.96,1.41,5.54,2.48c1.58,1.07,2.82,2.45,3.72,4.15C134.02,137.92,134.36,140.1,134.13,142.75z"/>
		<g>
			<path d="M134.13,142.75c-1.36,16.02-25.7,18.78-37.01,11.94c-3.61-2.21-6.04-6.21-5.75-10.51c-0.01-0.41,0.16-0.86,0.46-1.17
				c0.55-0.67,1.5-0.67,2.26-0.64c0,0,2.25-0.01,2.25-0.01l4.51-0.03c1.12,0.03,2.53-0.22,3.46,0.52c0.33,0.28,0.67,0.56,0.91,0.9
				c0.47,1.15,1.31,2.12,2.42,2.64c3.38,1.56,12.42,1.68,12.56-3.37c0.07-1.34-0.77-2-1.92-2.54c-1.29-0.7-3.11-1.1-4.51-1.53
				c-8.4-1.63-19.73-3.83-19.64-14.6c-0.25-8.48,7.22-14.79,15.1-16.08c7.58-1.34,16.7-0.57,22.13,5.5
				c1.92,1.92,5.89,10.08,0.6,9.77c-1.95-0.01-5.85-0.04-7.8-0.05c-1.35,0.05-2.96,0.02-3.62-1.44c-0.93-3.43-5.32-3.57-8.25-3.23
				c-3.47,0.28-5.98,4.57-2.55,6.8c5.92,2.99,13.11,2.54,18.89,5.92C132.63,133.72,134.78,138.28,134.13,142.75L134.13,142.75z
				 M134.13,142.75c0.62-4.47-1.52-9-5.53-11.15c-5.8-3.35-12.99-2.86-18.94-5.84c-2.16-1.12-2.23-4.28-0.44-5.8
				c1.26-1.2,3.03-1.48,4.7-1.53c1.68-0.15,3.4,0.12,4.91,0.91c0.97,0.58,1.85,1.47,2.09,2.65c0.11,0.29,0.82,0.93,1.35,1.01
				c2.75,0.18,6.9-0.03,9.69,0.02c0.3-0.01,0.7,0.01,0.92-0.02c0.87-0.22,1.27-1.12,1.11-2c-0.15-2.54-1.52-4.84-3.13-6.78
				c-5.3-5.77-14.15-6.37-21.45-5.07c-9.06,1.55-16.46,9.4-13.75,18.9c2.65,7.42,11.59,8.53,18.32,10.05
				c2.17,0.68,4.77,1.15,6.42,2.84c0.93,1.23,0.79,2.87,0.11,4.17c-2.47,3.7-9.5,3.5-13.16,1.88c-1.25-0.6-2.2-1.74-2.7-3l0.06,0.09
				c-0.47-0.51-0.96-1.05-1.66-1.12c-0.26-0.04-0.81-0.06-1.07-0.06c-2.04-0.02-5.86-0.03-7.89-0.05c-0.72,0-1.42-0.1-1.93,0.47
				c-0.22,0.24-0.35,0.54-0.35,0.88c-0.04,1.1,0.04,2.22,0.29,3.3c0.63,2.91,2.74,5.32,5.18,6.94
				C108.52,161.41,132.67,158.71,134.13,142.75L134.13,142.75z"/>
		</g>
	</g>
	<g>
		
			<linearGradient id="SVGID_00000103960317823354159000000016040204746469836220_" gradientUnits="userSpaceOnUse" x1="168.1559" y1="107.9786" x2="172.5933" y2="158.6983" gradientTransform="matrix(1 0 -0.0875 1 -0.474 0)">
			<stop  offset="0" style="stop-color:#CCCCCC"/>
			<stop  offset="1" style="stop-color:#F2F2F2"/>
		</linearGradient>
		<path style="fill:url(#SVGID_00000103960317823354159000000016040204746469836220_);" d="M139.98,155.59l3.58-40.88
			c0.08-0.88,0.32-1.7,0.74-2.44c0.41-0.74,0.93-1.37,1.56-1.88c0.63-0.51,1.31-0.92,2.06-1.22c0.75-0.3,1.49-0.45,2.24-0.45h5.44
			c0.51,0,0.89,0.16,1.14,0.49c0.3,0.33,0.42,0.74,0.38,1.26l-2.96,33.84c-0.03,0.37,0.11,0.83,0.44,1.36
			c0.32,0.54,0.84,0.8,1.53,0.8h18.7c0.51,0,0.93,0.15,1.25,0.45c0.32,0.3,0.46,0.73,0.41,1.29l-0.65,7.4
			c-0.05,0.56-0.26,0.99-0.64,1.29c-0.37,0.3-0.82,0.45-1.33,0.45h-32.3c-0.42,0-0.8-0.19-1.14-0.56
			C140.09,156.4,139.94,156.01,139.98,155.59z"/>
		<g>
			<path d="M139.98,155.59c1.1-13.04,2.21-26.34,3.21-39.41c0,0,0.15-1.8,0.15-1.8c0.21-1.87,1.32-3.59,2.87-4.64
				c2-1.59,4.69-1.4,7.09-1.4c0,0,1.8-0.02,1.8-0.02c0.61-0.08,1.63,0.08,1.95,0.6c0.88,0.92,0.34,2.43,0.34,3.5
				c0,0-0.28,3.28-0.28,3.28c-0.34,4.13-1.3,15.4-1.67,19.68c0,0-0.6,6.56-0.6,6.56l-0.15,1.64c-0.02,0.39-0.16,1,0.07,1.4
				c0.21,0.47,0.43,0.82,0.81,0.94c0.34,0.17,1.09,0.07,1.47,0.1c3.61,0.04,14.69,0.05,18.14,0.15c0.97,0.07,1.8,1.07,1.61,2.07
				c0,0-0.08,0.82-0.08,0.82c-0.1,1.08-0.37,3.81-0.48,4.91c-0.15,0.97,0.02,2.6-1.02,3.19c-0.88,0.64-2.34,0.31-3.34,0.37
				c-4.16-0.05-15.44-0.11-19.75-0.13c0,0-6.58-0.02-6.58-0.02l-3.29-0.01C141.1,157.5,139.94,156.85,139.98,155.59L139.98,155.59z
				 M139.98,155.59c-0.04,1.23,1.14,1.92,2.27,1.73c0,0,3.29-0.01,3.29-0.01l6.58-0.02c4.35-0.02,15.54-0.08,19.75-0.13
				c0,0,1.65-0.02,1.65-0.02c1.06,0.1,2.07-0.47,2.11-1.58c0,0,0.13-1.64,0.13-1.64c0.09-1.12,0.3-3.85,0.39-4.92
				c0.03-0.43,0.14-1.11-0.01-1.5c-0.15-0.39-0.57-0.66-1.03-0.71c-3.3-0.01-14.57,0.11-18.06,0.11c-0.56-0.03-1.23,0.08-1.79-0.14
				c-0.96-0.38-1.5-1.41-1.55-2.42c0.03-0.52,0.17-1.94,0.21-2.48c0,0,0.55-6.56,0.55-6.56c0.62-6.8,1.6-17.87,2.23-24.58
				c0.19-1.17-0.36-1.73-1.59-1.62c-1.71,0.02-3.69-0.07-5.36-0.03c-3.72,0.38-6.14,3.46-6.06,7.17
				C142.37,129.27,141.16,142.55,139.98,155.59L139.98,155.59z"/>
		</g>
	</g>
	<g>
		
			<linearGradient id="SVGID_00000073704456902818515320000003721532546480553897_" gradientUnits="userSpaceOnUse" x1="213.229" y1="108.0618" x2="217.6151" y2="158.1944" gradientTransform="matrix(1 0 -0.0875 1 -0.474 0)">
			<stop  offset="0" style="stop-color:#CCCCCC"/>
			<stop  offset="1" style="stop-color:#F2F2F2"/>
		</linearGradient>
		<path style="fill:url(#SVGID_00000073704456902818515320000003721532546480553897_);" d="M201.14,158.24
			c-6.6,0-11.67-1.6-15.21-4.81c-3.53-3.21-5.14-7.93-4.83-14.16c0.07-1.3,0.22-3.3,0.45-6c0.24-2.7,0.44-4.72,0.6-6.07
			c0.72-6.14,3.17-10.87,7.35-14.2c4.17-3.32,9.52-4.99,16.03-4.99c6.46,0,11.49,1.66,15.09,4.99c3.59,3.33,5.21,8.06,4.86,14.2
			c-0.14,2.7-0.27,4.72-0.39,6.07c-0.12,1.4-0.34,3.4-0.66,6c-0.78,6.23-3.2,10.95-7.27,14.16
			C213.09,156.63,207.75,158.24,201.14,158.24z M202.06,147.77c2.42,0,4.41-0.73,5.98-2.2c1.57-1.46,2.53-3.71,2.89-6.73
			c0.33-2.7,0.55-4.63,0.65-5.79c0.1-1.16,0.22-3.05,0.35-5.65c0.17-3.02-0.4-5.27-1.71-6.73s-3.18-2.2-5.6-2.2
			c-2.47,0-4.48,0.73-6.05,2.2c-1.57,1.46-2.54,3.71-2.89,6.73c-0.16,1.3-0.35,3.19-0.56,5.65c-0.22,2.51-0.37,4.44-0.44,5.79
			c-0.17,3.02,0.4,5.27,1.71,6.73C197.7,147.04,199.59,147.77,202.06,147.77z"/>
		<g>
			<path d="M201.14,158.24c-13.46,0.21-21.69-7.21-20.08-21.03c0.42-4.84,0.41-9.7,1.64-14.46c3.5-13.73,20.29-18,32.43-13.64
				c8.81,3.29,11.67,11.29,10.53,20.08c-0.41,4.82-0.66,9.69-1.94,14.4C220.97,153.76,211.1,158.52,201.14,158.24L201.14,158.24z
				 M201.14,158.24c9.88,0.19,19.75-4.54,22.27-14.74c1.17-4.66,1.33-9.56,1.65-14.35c0.95-8.35-1.88-16.16-10.26-19.17
				c-11.78-4.02-27.74-0.27-31.44,12.96c-1.29,4.59-1.39,9.54-1.9,14.3C179.58,151.01,187.75,158.33,201.14,158.24L201.14,158.24z"
				/>
			<path d="M202.06,147.77c5.53,0.11,8.63-4.36,8.78-9.52c0.28-2.85,0.62-6.86,0.68-9.69c0.2-3.02,0.09-6.62-2.61-8.45
				c-3.84-2.41-9.96-1.06-11.76,3.33c-1.24,2.46-1.35,6.66-1.75,9.39c-0.16,2.82-1.01,6.88-0.41,9.65
				C195.49,145.86,198.78,147.92,202.06,147.77L202.06,147.77z M202.06,147.77c-9.18-0.15-7.51-8.53-7.17-14.99
				c0.33-2.9,0.21-7,1.48-9.7c1.97-4.92,8.76-6.62,13.07-3.73c2.97,2.02,3.15,6.06,2.76,9.25c-0.16,2.82-0.65,6.85-1.05,9.68
				C210.77,143.44,207.65,147.98,202.06,147.77L202.06,147.77z"/>
		</g>
	</g>
	<g>
		
			<linearGradient id="SVGID_00000051376575750801574800000014828239035291156360_" gradientUnits="userSpaceOnUse" x1="256.9644" y1="108.2193" x2="259.6516" y2="157.7023" gradientTransform="matrix(1.0023 -0.033 -0.0544 0.9995 -0.8779 8.2651)">
			<stop  offset="0" style="stop-color:#CCCCCC"/>
			<stop  offset="1" style="stop-color:#F2F2F2"/>
		</linearGradient>
		<path style="fill:url(#SVGID_00000051376575750801574800000014828239035291156360_);" d="M270.02,108.09
			c0.51-0.02,0.93,0.14,1.27,0.48c0.33,0.34,0.48,0.74,0.46,1.2l-0.43,7.81c-0.03,0.51-0.23,0.94-0.59,1.27
			c-0.37,0.34-0.81,0.51-1.32,0.53l-16.22,0.53c1.02-0.03,1.93,0.31,2.7,1.02c0.78,0.72,1.14,1.54,1.09,2.47l-1.74,31.94
			c-0.03,0.51-0.24,0.91-0.62,1.2c-0.35,0.34-0.77,0.51-1.29,0.53l-9.72,0.32c-0.51,0.02-0.92-0.13-1.23-0.45
			c-0.36-0.27-0.52-0.66-0.49-1.17l1.82-33.47c0.04-0.65-0.15-1.15-0.55-1.51c-0.4-0.36-0.88-0.53-1.44-0.51l-10.14,0.33
			c-0.47,0.02-0.88-0.13-1.23-0.45c-0.36-0.31-0.52-0.72-0.49-1.24l0.19-3.56c0.05-0.88,0.27-1.7,0.66-2.46
			c0.39-0.75,0.89-1.41,1.5-1.96c0.61-0.55,1.29-0.98,2.02-1.28c0.74-0.3,1.48-0.47,2.23-0.49L270.02,108.09z"/>
		<g>
			<path d="M270.02,108.09c0.62-0.05,1.25,0.29,1.55,0.84c0.32,0.56,0.13,1.22,0.14,1.83c-0.05,1.28-0.23,4.33-0.28,5.56
				c-0.04,0.57,0,1.31-0.18,1.85c-0.22,0.6-0.76,1.05-1.37,1.2c-0.54,0.09-15.63,0.64-16.68,0.68c0,0-0.01-0.25-0.01-0.25
				c2.11-0.15,4.27,1.79,3.95,3.98c-0.04,0.76-0.13,2.88-0.17,3.67c-0.42,8.57-0.87,19.61-1.32,28.15
				c-0.17,1.17-1.31,1.95-2.44,1.93c0,0-1.56,0.06-1.56,0.06c-1.56,0.04-4.69,0.18-6.25,0.23c-0.98,0.01-2.72,0.29-3.3-0.47
				c-1.05-0.71-0.59-2.28-0.6-3.3c0.48-9.32,1.19-21.21,1.73-30.53c0.02-0.49,0.08-1.06,0.08-1.48c-0.02-0.9-0.84-1.43-1.71-1.35
				c0,0-1.53,0.04-1.53,0.04c-1.52,0.04-4.59,0.11-6.11,0.15c0,0-1.53,0.04-1.53,0.04l-0.76,0.02c-0.87,0.06-1.82-0.51-2.02-1.42
				c-0.09-1.58,0.14-3.08,0.24-4.67c0.3-2.12,1.72-3.95,3.54-4.95c1.58-1.06,4.25-0.84,6.05-0.92
				C243.39,108.9,265.6,108.22,270.02,108.09L270.02,108.09z M270.02,108.09l-24.45,0.89l-6.11,0.25c-1.73,0.14-4.38-0.08-5.88,0.97
				c-1.72,0.98-3.02,2.74-3.26,4.7c-0.09,0.98-0.1,2.02-0.16,3.03c-0.06,0.95-0.23,1.95,0.82,2.32c0.32,0.13,1.04,0.07,1.4,0.05
				c2.19-0.1,5.44-0.22,7.64-0.32c1.01,0.02,2.34-0.33,3.22,0.39c1.07,0.7,0.85,2.12,0.8,3.17c0,0-0.15,3.05-0.15,3.05l-0.31,6.11
				c-0.2,4.02-0.74,14.43-0.95,18.32c0,0-0.18,3.05-0.18,3.05l-0.09,1.53c-0.05,0.51,0.02,0.75,0.29,0.97
				c0.29,0.29,0.59,0.39,1.15,0.35c0,0,1.56-0.05,1.56-0.05c2.25-0.09,5.56-0.15,7.81-0.23c0.74,0.04,1.5-0.47,1.62-1.18
				c0.03-0.33,0.05-0.79,0.07-1.18l0.15-2.44l0.31-4.88c0.37-6.04,1.01-15.96,1.38-21.98c0,0,0.08-1.22,0.08-1.22
				c0.33-2.02-1.61-3.81-3.59-3.72c0,0-0.01-0.25-0.01-0.25l14.83-0.41c1.61,0.04,3.33-0.09,3.3-2.15c0.1-1.71,0.27-4.75,0.37-6.48
				c0-0.61,0.19-1.26-0.12-1.82C271.27,108.39,270.65,108.05,270.02,108.09L270.02,108.09z"/>
		</g>
	</g>
</g>
<g>
	<g>
		
			<linearGradient id="SVGID_00000146462566291769942850000016026589525923442585_" gradientUnits="userSpaceOnUse" x1="326.4678" y1="108.0385" x2="330.8536" y2="158.1677" gradientTransform="matrix(1 0 -0.0875 1 -6.9482 0)">
			<stop  offset="0.0251" style="stop-color:#CCCCCC"/>
			<stop  offset="1" style="stop-color:#F2F2F2"/>
		</linearGradient>
		<path style="fill:url(#SVGID_00000146462566291769942850000016026589525923442585_);" d="M307.68,158.24
			c-6.65,0-11.73-1.6-15.24-4.81c-3.51-3.21-5.11-7.91-4.8-14.09c0.06-1.26,0.22-3.3,0.47-6.14c0.25-2.88,0.46-4.98,0.62-6.28
			c0.76-6.05,3.2-10.71,7.33-13.99c4.12-3.28,9.47-4.92,16.02-4.92c4.14,0,7.79,0.67,10.95,2.02c3.16,1.35,5.58,3.3,7.27,5.86
			c1.68,2.56,2.42,5.58,2.21,9.07c-0.04,0.42-0.22,0.77-0.55,1.05c-0.33,0.28-0.7,0.42-1.12,0.42h-9.91c-0.65,0-1.12-0.13-1.4-0.38
			c-0.28-0.26-0.51-0.73-0.68-1.43c-0.45-2.28-1.3-3.87-2.55-4.78c-1.25-0.91-2.96-1.36-5.15-1.36c-5.26,0-8.23,2.93-8.93,8.79
			c-0.16,1.26-0.35,3.19-0.58,5.79c-0.23,2.61-0.38,4.58-0.45,5.93c-0.33,5.86,2.14,8.79,7.39,8.79c2.14,0,3.94-0.46,5.39-1.4
			c1.45-0.93,2.58-2.51,3.38-4.74c0.25-0.7,0.54-1.17,0.89-1.43c0.35-0.26,0.85-0.38,1.5-0.38h9.91c0.42,0,0.77,0.14,1.05,0.42
			c0.28,0.28,0.4,0.63,0.36,1.05c-0.4,3.49-1.66,6.51-3.79,9.07c-2.13,2.56-4.89,4.51-8.29,5.86
			C315.59,157.56,311.82,158.24,307.68,158.24z"/>
		<g>
			<path d="M307.68,158.24c-7.08,0.13-15.28-2.18-18.47-9.11c-3.08-6.77-1.08-14.4-0.71-21.52c1.24-17.17,18.3-23.05,33.06-18.59
				c4.69,1.5,9.01,4.9,10.63,9.69c0.62,1.77,0.86,3.65,0.82,5.51c0.09,1.13-0.37,2.29-1.59,2.61c-0.63,0.16-2.17,0.05-2.84,0.08
				c-1.81,0.01-5.44,0.01-7.25,0c-0.57-0.02-1.33,0.07-2.05-0.46c-0.65-0.61-0.76-1.27-0.92-1.89c-0.43-2.26-1.52-4.44-3.85-5.15
				c-3.18-0.97-7.3-0.7-9.59,1.97c-2.38,2.76-2.27,6.58-2.71,10.08c-0.27,2.4-0.42,4.81-0.63,7.21c-0.17,2.34,0,4.87,1.46,6.69
				c1.53,1.84,4.1,2.25,6.39,2.12c3.81-0.05,6.73-2.47,7.83-6.06c0.23-0.56,0.52-1.19,1.14-1.51c0.6-0.3,1.27-0.27,1.85-0.26
				c1.29,0.01,7.9,0.05,9.07,0.06c2.72-0.16,1.69,2.68,1.32,4.31C328.05,153.92,317.12,158.45,307.68,158.24L307.68,158.24z
				 M307.68,158.24c10.03,0.22,21.63-5.13,23.18-16.01c0.17-0.88,0.31-1.88-0.69-2.23c-0.51-0.18-2.11-0.03-2.68-0.07
				c0,0-7.25,0.05-7.25,0.05c-0.61,0-1.2-0.01-1.7,0.25c-0.48,0.25-0.76,0.8-0.96,1.34c-0.4,1.14-0.92,2.28-1.66,3.27
				c-2.27,3.08-6.63,3.7-10.16,2.86c-4.04-0.88-5.27-5.43-4.88-9.06c0.22-3.49,0.53-7.36,0.88-10.87c0.22-2.45,0.83-5.03,2.49-6.95
				c3.03-3.64,10.82-4.01,13.66,0.02c0.73,1.08,1.13,2.32,1.38,3.52c0.21,0.84,0.35,1.48,1.19,1.55c0.58,0.06,3.83,0,4.47,0.02
				c1.38-0.03,4.94,0.08,6.21-0.03c0.78-0.2,0.93-0.96,0.89-1.7c0.42-6.75-4.47-12.47-10.77-14.38c-14.42-4.47-31.05,1-32.48,17.82
				c-0.44,4.8-1.18,9.62-1.1,14.44C287.97,153.47,297.28,158.42,307.68,158.24L307.68,158.24z"/>
		</g>
	</g>
	<g>
		
			<linearGradient id="SVGID_00000090267323039682912890000002185027794688825473_" gradientUnits="userSpaceOnUse" x1="373.6357" y1="108.7845" x2="378.0753" y2="159.5296" gradientTransform="matrix(1 0 -0.0875 1 -6.9482 0)">
			<stop  offset="0.0251" style="stop-color:#CCCCCC"/>
			<stop  offset="1" style="stop-color:#F2F2F2"/>
		</linearGradient>
		<path style="fill:url(#SVGID_00000090267323039682912890000002185027794688825473_);" d="M333.04,157.12
			c-0.25-0.37-0.36-0.72-0.33-1.05c0.03-0.33,0.07-0.53,0.12-0.63l20.08-44.51c0.63-1.35,1.62-2.02,2.97-2.02h10.82
			c1.35,0,2.22,0.67,2.61,2.02l12.29,44.51c0.04,0.09,0.04,0.3,0.02,0.63c-0.03,0.37-0.21,0.71-0.54,1.01
			c-0.33,0.3-0.68,0.45-1.05,0.45h-9c-1.16,0-1.91-0.51-2.24-1.54l-2.77-9.84c-1.73,0.65-3.48,1.19-5.23,1.6
			c-1.76,0.42-3.45,0.73-5.07,0.94c-1.62,0.21-3.14,0.35-4.54,0.42c-1.4,0.07-2.62,0.1-3.64,0.1c-0.65,0-1.2,0-1.64,0
			c-0.44,0-0.78-0.02-1.01-0.07c0.82,0.14,1.47,0.61,1.94,1.4c0.47,0.79,0.44,1.72-0.07,2.79l-1.21,2.65
			c-0.51,1.02-1.34,1.54-2.51,1.54h-9C333.72,157.54,333.38,157.4,333.04,157.12z M352.32,139.26c1.31-0.09,2.67-0.26,4.09-0.49
			c1.23-0.19,2.52-0.45,3.87-0.8c1.36-0.35,2.67-0.85,3.93-1.5l-4.03-15.35L352.32,139.26z"/>
		<g>
			<path d="M333.04,157.12c-0.35-0.48-0.43-1.13-0.21-1.68c0,0,11.54-25.85,11.54-25.85l5.72-12.95c0.45-0.99,1.7-3.88,2.14-4.86
				c0.46-1.1,1.01-2.39,2.23-2.9c0.59-0.28,1.3-0.31,1.86-0.3l3.54-0.03l7.1-0.05c0.65,0.03,1.36,0.25,1.87,0.75
				c0.51,0.48,0.79,1.14,0.95,1.73l0.95,3.41c3.71,13.23,7.72,27.76,11.29,40.94c0.22,0.8-0.24,2.04-1.21,2.44
				c-0.28,0.15-0.7,0.2-0.94,0.18l-3.14-0.03c-1.08,0-3.68-0.03-4.71-0.04c-1.44,0.08-3.08-0.12-3.52-1.8
				c-0.64-2.34-2.03-7.46-2.69-9.86c0,0,0.3,0.15,0.3,0.15c-1.69,0.62-3.41,1.14-5.17,1.54c-3.16,0.62-7.48,1.29-10.67,1.33
				c-1.8,0.02-3.57,0.14-5.38-0.02l0.03-0.13c1.96,0.29,2.89,2.64,1.9,4.27c0,0-1.12,2.45-1.12,2.45c-0.33,0.84-1.07,1.55-1.99,1.69
				c-2.61,0.13-5.46,0-8.08,0.03C334.91,157.5,333.61,157.74,333.04,157.12L333.04,157.12z M333.04,157.12
				c0.6,0.61,1.82,0.37,2.59,0.41c2.62-0.05,5.48,0.06,8.06-0.08c0.89-0.15,1.6-0.84,1.92-1.66l1.11-2.45
				c0.38-0.79,0.56-1.74,0.16-2.55c-0.38-0.79-1.12-1.43-2-1.55l0.03-0.13c1.76,0.15,3.57,0.02,5.35-0.04
				c5.21-0.28,11.04-1.26,15.91-3.2c0,0,0.07,0.24,0.07,0.24l1.75,6.03l0.87,3.02c0.19,0.89,0.59,1.9,1.63,2.01
				c1.73,0.1,4.45-0.03,6.22-0.01c0,0,3.14-0.03,3.14-0.03c0.87,0.08,1.51-0.88,1.33-1.57c-4.02-14.31-8.35-29.93-12.25-44.34
				c-0.24-1.07-0.93-1.85-2.05-1.9c0,0-7.05-0.06-7.05-0.06l-3.54-0.03c-0.61-0.02-1.11,0-1.61,0.22c-1.55,0.67-1.95,2.8-2.71,4.17
				c0,0-1.48,3.21-1.48,3.21l-5.92,12.85l-11.75,25.76C332.62,156,332.68,156.64,333.04,157.12L333.04,157.12z"/>
			<path d="M352.32,139.26c4.01-0.67,8.1-1.2,11.72-3.14c0,0-0.2,0.45-0.2,0.45c-1.42-5.1-2.82-10.2-4.11-15.33
				c0,0,0.88,0.07,0.88,0.07C358.39,126.42,354.72,134.14,352.32,139.26L352.32,139.26z M352.32,139.26
				c2.34-5.87,5.47-13.82,7.96-19.57c0,0,0.36,1.31,0.36,1.31c1.42,5.21,2.74,10.44,4.03,15.68
				C360.88,138.64,356.48,138.97,352.32,139.26L352.32,139.26z"/>
		</g>
	</g>
	<g>
		
			<linearGradient id="SVGID_00000116210854963964262260000000849666496688555710_" gradientUnits="userSpaceOnUse" x1="425.2025" y1="107.8235" x2="429.6795" y2="158.9956" gradientTransform="matrix(1 0 -0.0875 1 -6.9482 0)">
			<stop  offset="0.0251" style="stop-color:#CCCCCC"/>
			<stop  offset="1" style="stop-color:#F2F2F2"/>
		</linearGradient>
		<path style="fill:url(#SVGID_00000116210854963964262260000000849666496688555710_);" d="M427.13,157.4h-9.84
			c-1.3,0-2.18-0.6-2.63-1.81l-5.9-13.95c-0.35-0.74-0.95-1.12-1.79-1.12h-9.14c1.16,0,2.05,0.41,2.65,1.22
			c0.6,0.81,0.87,1.64,0.79,2.48l-1.01,11.51c-0.04,0.51-0.24,0.91-0.59,1.19c-0.35,0.33-0.79,0.49-1.3,0.49h-9.56
			c-0.47,0-0.86-0.17-1.18-0.52c-0.32-0.35-0.46-0.73-0.42-1.15l3.58-40.89c0.15-1.72,0.88-3.15,2.19-4.29
			c1.31-1.14,2.78-1.71,4.41-1.71h14.79c2.6,0,5.06,0.28,7.36,0.84c2.3,0.56,4.29,1.46,5.97,2.72c1.68,1.26,2.97,2.9,3.86,4.92
			c0.89,2.02,1.21,4.5,0.95,7.43c-0.24,2.79-1.09,5.3-2.54,7.54c-1.45,2.23-3.47,4.05-6.06,5.44c-0.39,0.23-0.61,0.51-0.67,0.84
			c-0.05,0.33-0.02,0.58,0.11,0.77l7.4,15.91c0.11,0.28,0.16,0.54,0.14,0.77c-0.03,0.37-0.21,0.7-0.54,0.98
			C427.85,157.26,427.5,157.4,427.13,157.4z M416.88,124.68c0.17-1.91-0.28-3.36-1.33-4.36c-1.05-1-2.48-1.5-4.3-1.5h-12
			c1.16,0,2.06,0.4,2.69,1.19c0.63,0.79,0.9,1.63,0.83,2.51l-0.49,5.65c-0.05,0.56,0.1,1.05,0.46,1.47
			c0.36,0.42,0.84,0.63,1.45,0.63h6.07c1.81,0,3.33-0.45,4.55-1.36C416.01,127.99,416.71,126.59,416.88,124.68z"/>
		<g>
			<path d="M427.13,157.4l-9.95,0.02c-0.83,0-1.69-0.37-2.16-1.08c-0.39-0.58-0.73-1.62-1.04-2.27c0,0-1.95-4.58-1.95-4.58
				c-0.65-1.53-2.29-5.39-2.92-6.86c-0.32-0.72-0.56-1.61-1.37-1.9c-0.65-0.24-1.74-0.08-2.44-0.11c-1.59,0.01-5.82,0.04-7.46,0.05
				c0,0,0-0.33,0-0.33c2.12-0.16,3.88,1.95,3.64,4c-0.18,2.11-0.47,5.98-0.65,8.12c-0.05,0.8-0.22,2.71-0.29,3.5
				c-0.17,1.25-1.53,1.88-2.69,1.74c-2.18,0.02-5.64,0.04-7.83,0.06l-0.98,0.01c-0.71,0.09-1.64-0.35-1.98-1.04
				c-0.48-0.68-0.06-2.36-0.07-3.13c0.66-7.78,1.98-23.43,2.65-31.2c0,0,0.71-7.81,0.71-7.81c0.15-1.38,0.75-2.74,1.7-3.77
				c1.38-1.54,3.46-2.52,5.54-2.43c0,0,1.96,0.01,1.96,0.01c2.48,0,9.18,0.05,11.74,0.06c9.64-0.28,19.78,3.65,19.28,14.88
				c-0.04,5.28-2.64,10.48-7.09,13.39c-0.71,0.61-1.85,0.83-2.32,1.67c-0.09,0.29-0.11,0.65,0.06,0.9
				c1.42,3.07,5.11,11.07,6.49,14.05c0.25,0.66,0.88,1.67,1,2.37C428.83,156.62,427.97,157.39,427.13,157.4L427.13,157.4z
				 M427.13,157.4c0.85-0.01,1.7-0.79,1.57-1.67c-0.14-0.7-0.73-1.68-1.01-2.36c-1.38-2.93-5.14-10.97-6.57-14.01
				c-0.18-0.27-0.16-0.68-0.06-0.99c0.13-0.33,0.41-0.56,0.7-0.72c1.71-0.93,3.29-2.12,4.58-3.59c3.47-3.89,4.59-9.53,3.54-14.56
				c-1.83-8.31-11.13-10.61-18.57-10.28c0,0-7.83,0.05-7.83,0.05l-3.91,0.01c-1.07,0.03-2.75-0.1-3.77,0.23
				c-2.32,0.68-4.3,2.76-4.49,5.2c0,0-0.66,7.79-0.66,7.79c-0.68,7.78-2.1,23.42-2.81,31.19c0,0-0.18,1.95-0.18,1.95
				c-0.1,0.55,0.21,0.99,0.63,1.25c0.34,0.22,1.32,0.12,1.75,0.15c1.21,0,4.61,0.04,5.87,0.04c0.65-0.01,2.28,0.06,2.87-0.02
				c0.28-0.05,0.53-0.19,0.73-0.38c0.59-0.45,0.48-1.25,0.58-1.93c0,0,0.22-2.32,0.22-2.32c0.15-1.56,0.52-5.45,0.66-6.95
				c0.5-2.3-0.47-4.82-3.12-4.79c0,0,0-0.33,0-0.33l4.97,0.04l2.49,0.02c1.16,0.04,2.83-0.27,3.45,1.02
				c0.91,2.08,2.47,5.91,3.38,8.03c0,0,1.92,4.59,1.92,4.59c0.29,0.63,0.63,1.68,1.02,2.26c0.45,0.7,1.29,1.06,2.11,1.06
				L427.13,157.4L427.13,157.4z"/>
			<path d="M416.88,124.68c0.48-4.44-3-6.14-6.93-5.68c-3.57,0.09-7.13,0.23-10.7,0.28v-0.93c0.69-0.01,1.42,0.11,2.07,0.48
				c1.27,0.76,2.05,2.19,1.94,3.65c0,0-0.18,1.9-0.18,1.9l-0.39,3.78c-0.15,1.21,0.81,1.9,2.04,1.77
				C409.63,129.98,416.19,131.47,416.88,124.68L416.88,124.68z M416.88,124.68c-0.57,6.71-7.24,5.66-12.14,5.9
				c-1.55,0.26-3.04-0.8-2.89-2.48c0,0,0.27-3.79,0.27-3.79l0.15-1.89c0.1-1.68-1.31-3.22-3.03-3.14c0,0,0-0.93,0-0.93
				c3.57,0.05,7.13,0.19,10.7,0.28C413.88,118.41,417.42,120.24,416.88,124.68L416.88,124.68z"/>
		</g>
	</g>
</g>
</svg>
